STARTFONT 2.1
COMMENT Copyright (C) 1994-1995 Cronyx Ltd.
COMMENT Changes Copyright (C) 1996 by Andrey A. Chernov, Moscow, Russia.
COMMENT Designed by Serge Vakulenko, <vak@cronyx.ru>
COMMENT This software may be used, modified, copied, distributed, and sold,
COMMENT in both source and binary form provided that the copyright
COMMENT and these terms are retained. Under no circumstances is the author
COMMENT responsible for the proper functioning of this software, nor does
COMMENT the author assume any responsibility for damages incurred with its use.
COMMENT $XFree86: xc/fonts/bdf/cyrillic/koinil2.bdf,v 3.1 1996/09/01 12:19:07 dawes Exp $
FONT -Cronyx-Nil-Medium-R-Normal--2-20-75-75-C-10-KOI8-R
SIZE 2 75 75
FONTBOUNDINGBOX 1 2 0 0
STARTPROPERTIES 19
FONT_DESCENT 1
FONT_ASCENT 1
FONTNAME_REGISTRY ""
FOUNDRY "Cronyx"
FAMILY_NAME "Fixed"
WEIGHT_NAME "Medium"
SLANT "R"
SETWIDTH_NAME "Normal"
ADD_STYLE_NAME ""
AVERAGE_WIDTH 10
CHARSET_REGISTRY "KOI8"
CHARSET_ENCODING "R"
PIXEL_SIZE 2
POINT_SIZE 20
RESOLUTION_X 75
RESOLUTION_Y 75
DEFAULT_CHAR 32
SPACING "C"
COPYRIGHT "Copyright (C) 1994 Cronyx Ltd., Portions Copyright (C) 1996 by Andrey A. Chernov, Moscow, Russia."
ENDPROPERTIES
CHARS 256
STARTCHAR C000
ENCODING 0
SWIDTH 1 0
DWIDTH 1 0
BBX 1 2 0 -1
BITMAP
00
00
ENDCHAR
STARTCHAR C001
ENCODING 1
SWIDTH 1 0
DWIDTH 1 0
BBX 1 2 0 -1
BITMAP
00
80
ENDCHAR
STARTCHAR C002
ENCODING 2
SWIDTH 1 0
DWIDTH 1 0
BBX 1 2 0 -1
BITMAP
80
80
ENDCHAR
STARTCHAR C003
ENCODING 3
SWIDTH 1 0
DWIDTH 1 0
BBX 1 2 0 -1
BITMAP
80
80
ENDCHAR
STARTCHAR C004
ENCODING 4
SWIDTH 1 0
DWIDTH 1 0
BBX 1 2 0 -1
BITMAP
80
80
ENDCHAR
STARTCHAR C005
ENCODING 5
SWIDTH 1 0
DWIDTH 1 0
BBX 1 2 0 -1
BITMAP
80
80
ENDCHAR
STARTCHAR C006
ENCODING 6
SWIDTH 1 0
DWIDTH 1 0
BBX 1 2 0 -1
BITMAP
80
80
ENDCHAR
STARTCHAR C007
ENCODING 7
SWIDTH 1 0
DWIDTH 1 0
BBX 1 2 0 -1
BITMAP
80
00
ENDCHAR
STARTCHAR C010
ENCODING 8
SWIDTH 1 0
DWIDTH 1 0
BBX 1 2 0 -1
BITMAP
00
80
ENDCHAR
STARTCHAR C011
ENCODING 9
SWIDTH 1 0
DWIDTH 1 0
BBX 1 2 0 -1
BITMAP
80
80
ENDCHAR
STARTCHAR C012
ENCODING 10
SWIDTH 1 0
DWIDTH 1 0
BBX 1 2 0 -1
BITMAP
80
80
ENDCHAR
STARTCHAR C013
ENCODING 11
SWIDTH 1 0
DWIDTH 1 0
BBX 1 2 0 -1
BITMAP
80
80
ENDCHAR
STARTCHAR C014
ENCODING 12
SWIDTH 1 0
DWIDTH 1 0
BBX 1 2 0 -1
BITMAP
00
80
ENDCHAR
STARTCHAR C015
ENCODING 13
SWIDTH 1 0
DWIDTH 1 0
BBX 1 2 0 -1
BITMAP
00
80
ENDCHAR
STARTCHAR C016
ENCODING 14
SWIDTH 1 0
DWIDTH 1 0
BBX 1 2 0 -1
BITMAP
80
80
ENDCHAR
STARTCHAR C017
ENCODING 15
SWIDTH 1 0
DWIDTH 1 0
BBX 1 2 0 -1
BITMAP
80
80
ENDCHAR
STARTCHAR C020
ENCODING 16
SWIDTH 1 0
DWIDTH 1 0
BBX 1 2 0 -1
BITMAP
80
00
ENDCHAR
STARTCHAR C021
ENCODING 17
SWIDTH 1 0
DWIDTH 1 0
BBX 1 2 0 -1
BITMAP
80
00
ENDCHAR
STARTCHAR C022
ENCODING 18
SWIDTH 1 0
DWIDTH 1 0
BBX 1 2 0 -1
BITMAP
00
80
ENDCHAR
STARTCHAR C023
ENCODING 19
SWIDTH 1 0
DWIDTH 1 0
BBX 1 2 0 -1
BITMAP
00
80
ENDCHAR
STARTCHAR C024
ENCODING 20
SWIDTH 1 0
DWIDTH 1 0
BBX 1 2 0 -1
BITMAP
00
80
ENDCHAR
STARTCHAR C025
ENCODING 21
SWIDTH 1 0
DWIDTH 1 0
BBX 1 2 0 -1
BITMAP
80
80
ENDCHAR
STARTCHAR C026
ENCODING 22
SWIDTH 1 0
DWIDTH 1 0
BBX 1 2 0 -1
BITMAP
80
80
ENDCHAR
STARTCHAR C027
ENCODING 23
SWIDTH 1 0
DWIDTH 1 0
BBX 1 2 0 -1
BITMAP
80
80
ENDCHAR
STARTCHAR C030
ENCODING 24
SWIDTH 1 0
DWIDTH 1 0
BBX 1 2 0 -1
BITMAP
00
80
ENDCHAR
STARTCHAR C031
ENCODING 25
SWIDTH 1 0
DWIDTH 1 0
BBX 1 2 0 -1
BITMAP
80
80
ENDCHAR
STARTCHAR C032
ENCODING 26
SWIDTH 1 0
DWIDTH 1 0
BBX 1 2 0 -1
BITMAP
00
80
ENDCHAR
STARTCHAR C033
ENCODING 27
SWIDTH 1 0
DWIDTH 1 0
BBX 1 2 0 -1
BITMAP
00
80
ENDCHAR
STARTCHAR C034
ENCODING 28
SWIDTH 1 0
DWIDTH 1 0
BBX 1 2 0 -1
BITMAP
00
80
ENDCHAR
STARTCHAR C035
ENCODING 29
SWIDTH 1 0
DWIDTH 1 0
BBX 1 2 0 -1
BITMAP
00
80
ENDCHAR
STARTCHAR C036
ENCODING 30
SWIDTH 1 0
DWIDTH 1 0
BBX 1 2 0 -1
BITMAP
00
80
ENDCHAR
STARTCHAR C037
ENCODING 31
SWIDTH 1 0
DWIDTH 1 0
BBX 1 2 0 -1
BITMAP
00
80
ENDCHAR
STARTCHAR C040
ENCODING 32
SWIDTH 1 0
DWIDTH 1 0
BBX 1 2 0 -1
BITMAP
00
00
ENDCHAR
STARTCHAR !
ENCODING 33
SWIDTH 1 0
DWIDTH 1 0
BBX 1 2 0 -1
BITMAP
80
80
ENDCHAR
STARTCHAR "
ENCODING 34
SWIDTH 1 0
DWIDTH 1 0
BBX 1 2 0 -1
BITMAP
80
00
ENDCHAR
STARTCHAR #
ENCODING 35
SWIDTH 1 0
DWIDTH 1 0
BBX 1 2 0 -1
BITMAP
80
80
ENDCHAR
STARTCHAR $
ENCODING 36
SWIDTH 1 0
DWIDTH 1 0
BBX 1 2 0 -1
BITMAP
80
80
ENDCHAR
STARTCHAR %
ENCODING 37
SWIDTH 1 0
DWIDTH 1 0
BBX 1 2 0 -1
BITMAP
80
80
ENDCHAR
STARTCHAR &
ENCODING 38
SWIDTH 1 0
DWIDTH 1 0
BBX 1 2 0 -1
BITMAP
80
80
ENDCHAR
STARTCHAR '
ENCODING 39
SWIDTH 1 0
DWIDTH 1 0
BBX 1 2 0 -1
BITMAP
80
00
ENDCHAR
STARTCHAR (
ENCODING 40
SWIDTH 1 0
DWIDTH 1 0
BBX 1 2 0 -1
BITMAP
80
80
ENDCHAR
STARTCHAR )
ENCODING 41
SWIDTH 1 0
DWIDTH 1 0
BBX 1 2 0 -1
BITMAP
80
80
ENDCHAR
STARTCHAR *
ENCODING 42
SWIDTH 1 0
DWIDTH 1 0
BBX 1 2 0 -1
BITMAP
00
80
ENDCHAR
STARTCHAR +
ENCODING 43
SWIDTH 1 0
DWIDTH 1 0
BBX 1 2 0 -1
BITMAP
00
80
ENDCHAR
STARTCHAR ,
ENCODING 44
SWIDTH 1 0
DWIDTH 1 0
BBX 1 2 0 -1
BITMAP
00
80
ENDCHAR
STARTCHAR -
ENCODING 45
SWIDTH 1 0
DWIDTH 1 0
BBX 1 2 0 -1
BITMAP
00
80
ENDCHAR
STARTCHAR .
ENCODING 46
SWIDTH 1 0
DWIDTH 1 0
BBX 1 2 0 -1
BITMAP
00
80
ENDCHAR
STARTCHAR /
ENCODING 47
SWIDTH 1 0
DWIDTH 1 0
BBX 1 2 0 -1
BITMAP
80
80
ENDCHAR
STARTCHAR 0
ENCODING 48
SWIDTH 1 0
DWIDTH 1 0
BBX 1 2 0 -1
BITMAP
80
80
ENDCHAR
STARTCHAR 1
ENCODING 49
SWIDTH 1 0
DWIDTH 1 0
BBX 1 2 0 -1
BITMAP
80
80
ENDCHAR
STARTCHAR 2
ENCODING 50
SWIDTH 1 0
DWIDTH 1 0
BBX 1 2 0 -1
BITMAP
80
80
ENDCHAR
STARTCHAR 3
ENCODING 51
SWIDTH 1 0
DWIDTH 1 0
BBX 1 2 0 -1
BITMAP
80
80
ENDCHAR
STARTCHAR 4
ENCODING 52
SWIDTH 1 0
DWIDTH 1 0
BBX 1 2 0 -1
BITMAP
80
80
ENDCHAR
STARTCHAR 5
ENCODING 53
SWIDTH 1 0
DWIDTH 1 0
BBX 1 2 0 -1
BITMAP
80
80
ENDCHAR
STARTCHAR 6
ENCODING 54
SWIDTH 1 0
DWIDTH 1 0
BBX 1 2 0 -1
BITMAP
80
80
ENDCHAR
STARTCHAR 7
ENCODING 55
SWIDTH 1 0
DWIDTH 1 0
BBX 1 2 0 -1
BITMAP
80
80
ENDCHAR
STARTCHAR 8
ENCODING 56
SWIDTH 1 0
DWIDTH 1 0
BBX 1 2 0 -1
BITMAP
80
80
ENDCHAR
STARTCHAR 9
ENCODING 57
SWIDTH 1 0
DWIDTH 1 0
BBX 1 2 0 -1
BITMAP
80
80
ENDCHAR
STARTCHAR :
ENCODING 58
SWIDTH 1 0
DWIDTH 1 0
BBX 1 2 0 -1
BITMAP
80
80
ENDCHAR
STARTCHAR ;
ENCODING 59
SWIDTH 1 0
DWIDTH 1 0
BBX 1 2 0 -1
BITMAP
80
80
ENDCHAR
STARTCHAR <
ENCODING 60
SWIDTH 1 0
DWIDTH 1 0
BBX 1 2 0 -1
BITMAP
80
80
ENDCHAR
STARTCHAR =
ENCODING 61
SWIDTH 1 0
DWIDTH 1 0
BBX 1 2 0 -1
BITMAP
80
80
ENDCHAR
STARTCHAR >
ENCODING 62
SWIDTH 1 0
DWIDTH 1 0
BBX 1 2 0 -1
BITMAP
80
80
ENDCHAR
STARTCHAR ?
ENCODING 63
SWIDTH 1 0
DWIDTH 1 0
BBX 1 2 0 -1
BITMAP
80
80
ENDCHAR
STARTCHAR @
ENCODING 64
SWIDTH 1 0
DWIDTH 1 0
BBX 1 2 0 -1
BITMAP
80
80
ENDCHAR
STARTCHAR A
ENCODING 65
SWIDTH 1 0
DWIDTH 1 0
BBX 1 2 0 -1
BITMAP
80
00
ENDCHAR
STARTCHAR B
ENCODING 66
SWIDTH 1 0
DWIDTH 1 0
BBX 1 2 0 -1
BITMAP
00
00
ENDCHAR
STARTCHAR C
ENCODING 67
SWIDTH 1 0
DWIDTH 1 0
BBX 1 2 0 -1
BITMAP
00
00
ENDCHAR
STARTCHAR D
ENCODING 68
SWIDTH 1 0
DWIDTH 1 0
BBX 1 2 0 -1
BITMAP
00
00
ENDCHAR
STARTCHAR E
ENCODING 69
SWIDTH 1 0
DWIDTH 1 0
BBX 1 2 0 -1
BITMAP
00
00
ENDCHAR
STARTCHAR F
ENCODING 70
SWIDTH 1 0
DWIDTH 1 0
BBX 1 2 0 -1
BITMAP
80
80
ENDCHAR
STARTCHAR G
ENCODING 71
SWIDTH 1 0
DWIDTH 1 0
BBX 1 2 0 -1
BITMAP
80
80
ENDCHAR
STARTCHAR H
ENCODING 72
SWIDTH 1 0
DWIDTH 1 0
BBX 1 2 0 -1
BITMAP
80
80
ENDCHAR
STARTCHAR I
ENCODING 73
SWIDTH 1 0
DWIDTH 1 0
BBX 1 2 0 -1
BITMAP
80
80
ENDCHAR
STARTCHAR J
ENCODING 74
SWIDTH 1 0
DWIDTH 1 0
BBX 1 2 0 -1
BITMAP
80
80
ENDCHAR
STARTCHAR K
ENCODING 75
SWIDTH 1 0
DWIDTH 1 0
BBX 1 2 0 -1
BITMAP
80
80
ENDCHAR
STARTCHAR L
ENCODING 76
SWIDTH 1 0
DWIDTH 1 0
BBX 1 2 0 -1
BITMAP
80
80
ENDCHAR
STARTCHAR M
ENCODING 77
SWIDTH 1 0
DWIDTH 1 0
BBX 1 2 0 -1
BITMAP
80
80
ENDCHAR
STARTCHAR N
ENCODING 78
SWIDTH 1 0
DWIDTH 1 0
BBX 1 2 0 -1
BITMAP
80
80
ENDCHAR
STARTCHAR O
ENCODING 79
SWIDTH 1 0
DWIDTH 1 0
BBX 1 2 0 -1
BITMAP
80
80
ENDCHAR
STARTCHAR P
ENCODING 80
SWIDTH 1 0
DWIDTH 1 0
BBX 1 2 0 -1
BITMAP
80
80
ENDCHAR
STARTCHAR Q
ENCODING 81
SWIDTH 1 0
DWIDTH 1 0
BBX 1 2 0 -1
BITMAP
80
80
ENDCHAR
STARTCHAR R
ENCODING 82
SWIDTH 1 0
DWIDTH 1 0
BBX 1 2 0 -1
BITMAP
80
80
ENDCHAR
STARTCHAR S
ENCODING 83
SWIDTH 1 0
DWIDTH 1 0
BBX 1 2 0 -1
BITMAP
80
80
ENDCHAR
STARTCHAR T
ENCODING 84
SWIDTH 1 0
DWIDTH 1 0
BBX 1 2 0 -1
BITMAP
80
80
ENDCHAR
STARTCHAR U
ENCODING 85
SWIDTH 1 0
DWIDTH 1 0
BBX 1 2 0 -1
BITMAP
80
80
ENDCHAR
STARTCHAR V
ENCODING 86
SWIDTH 1 0
DWIDTH 1 0
BBX 1 2 0 -1
BITMAP
80
80
ENDCHAR
STARTCHAR W
ENCODING 87
SWIDTH 1 0
DWIDTH 1 0
BBX 1 2 0 -1
BITMAP
80
80
ENDCHAR
STARTCHAR X
ENCODING 88
SWIDTH 1 0
DWIDTH 1 0
BBX 1 2 0 -1
BITMAP
80
80
ENDCHAR
STARTCHAR Y
ENCODING 89
SWIDTH 1 0
DWIDTH 1 0
BBX 1 2 0 -1
BITMAP
80
80
ENDCHAR
STARTCHAR Z
ENCODING 90
SWIDTH 1 0
DWIDTH 1 0
BBX 1 2 0 -1
BITMAP
80
80
ENDCHAR
STARTCHAR [
ENCODING 91
SWIDTH 1 0
DWIDTH 1 0
BBX 1 2 0 -1
BITMAP
80
80
ENDCHAR
STARTCHAR \
ENCODING 92
SWIDTH 1 0
DWIDTH 1 0
BBX 1 2 0 -1
BITMAP
80
80
ENDCHAR
STARTCHAR ]
ENCODING 93
SWIDTH 1 0
DWIDTH 1 0
BBX 1 2 0 -1
BITMAP
80
80
ENDCHAR
STARTCHAR ^
ENCODING 94
SWIDTH 1 0
DWIDTH 1 0
BBX 1 2 0 -1
BITMAP
80
00
ENDCHAR
STARTCHAR _
ENCODING 95
SWIDTH 1 0
DWIDTH 1 0
BBX 1 2 0 -1
BITMAP
00
80
ENDCHAR
STARTCHAR `
ENCODING 96
SWIDTH 1 0
DWIDTH 1 0
BBX 1 2 0 -1
BITMAP
80
00
ENDCHAR
STARTCHAR a
ENCODING 97
SWIDTH 1 0
DWIDTH 1 0
BBX 1 2 0 -1
BITMAP
00
80
ENDCHAR
STARTCHAR b
ENCODING 98
SWIDTH 1 0
DWIDTH 1 0
BBX 1 2 0 -1
BITMAP
00
80
ENDCHAR
STARTCHAR c
ENCODING 99
SWIDTH 1 0
DWIDTH 1 0
BBX 1 2 0 -1
BITMAP
00
80
ENDCHAR
STARTCHAR d
ENCODING 100
SWIDTH 1 0
DWIDTH 1 0
BBX 1 2 0 -1
BITMAP
00
80
ENDCHAR
STARTCHAR e
ENCODING 101
SWIDTH 1 0
DWIDTH 1 0
BBX 1 2 0 -1
BITMAP
00
80
ENDCHAR
STARTCHAR f
ENCODING 102
SWIDTH 1 0
DWIDTH 1 0
BBX 1 2 0 -1
BITMAP
00
80
ENDCHAR
STARTCHAR g
ENCODING 103
SWIDTH 1 0
DWIDTH 1 0
BBX 1 2 0 -1
BITMAP
00
80
ENDCHAR
STARTCHAR h
ENCODING 104
SWIDTH 1 0
DWIDTH 1 0
BBX 1 2 0 -1
BITMAP
00
80
ENDCHAR
STARTCHAR i
ENCODING 105
SWIDTH 1 0
DWIDTH 1 0
BBX 1 2 0 -1
BITMAP
00
80
ENDCHAR
STARTCHAR j
ENCODING 106
SWIDTH 1 0
DWIDTH 1 0
BBX 1 2 0 -1
BITMAP
00
80
ENDCHAR
STARTCHAR k
ENCODING 107
SWIDTH 1 0
DWIDTH 1 0
BBX 1 2 0 -1
BITMAP
00
80
ENDCHAR
STARTCHAR l
ENCODING 108
SWIDTH 1 0
DWIDTH 1 0
BBX 1 2 0 -1
BITMAP
00
80
ENDCHAR
STARTCHAR m
ENCODING 109
SWIDTH 1 0
DWIDTH 1 0
BBX 1 2 0 -1
BITMAP
00
80
ENDCHAR
STARTCHAR n
ENCODING 110
SWIDTH 1 0
DWIDTH 1 0
BBX 1 2 0 -1
BITMAP
00
80
ENDCHAR
STARTCHAR o
ENCODING 111
SWIDTH 1 0
DWIDTH 1 0
BBX 1 2 0 -1
BITMAP
00
80
ENDCHAR
STARTCHAR p
ENCODING 112
SWIDTH 1 0
DWIDTH 1 0
BBX 1 2 0 -1
BITMAP
00
80
ENDCHAR
STARTCHAR q
ENCODING 113
SWIDTH 1 0
DWIDTH 1 0
BBX 1 2 0 -1
BITMAP
00
80
ENDCHAR
STARTCHAR r
ENCODING 114
SWIDTH 1 0
DWIDTH 1 0
BBX 1 2 0 -1
BITMAP
00
80
ENDCHAR
STARTCHAR s
ENCODING 115
SWIDTH 1 0
DWIDTH 1 0
BBX 1 2 0 -1
BITMAP
00
80
ENDCHAR
STARTCHAR t
ENCODING 116
SWIDTH 1 0
DWIDTH 1 0
BBX 1 2 0 -1
BITMAP
00
80
ENDCHAR
STARTCHAR u
ENCODING 117
SWIDTH 1 0
DWIDTH 1 0
BBX 1 2 0 -1
BITMAP
00
80
ENDCHAR
STARTCHAR v
ENCODING 118
SWIDTH 1 0
DWIDTH 1 0
BBX 1 2 0 -1
BITMAP
00
80
ENDCHAR
STARTCHAR w
ENCODING 119
SWIDTH 1 0
DWIDTH 1 0
BBX 1 2 0 -1
BITMAP
00
80
ENDCHAR
STARTCHAR x
ENCODING 120
SWIDTH 1 0
DWIDTH 1 0
BBX 1 2 0 -1
BITMAP
00
80
ENDCHAR
STARTCHAR y
ENCODING 121
SWIDTH 1 0
DWIDTH 1 0
BBX 1 2 0 -1
BITMAP
00
80
ENDCHAR
STARTCHAR z
ENCODING 122
SWIDTH 1 0
DWIDTH 1 0
BBX 1 2 0 -1
BITMAP
00
80
ENDCHAR
STARTCHAR {
ENCODING 123
SWIDTH 1 0
DWIDTH 1 0
BBX 1 2 0 -1
BITMAP
00
80
ENDCHAR
STARTCHAR |
ENCODING 124
SWIDTH 1 0
DWIDTH 1 0
BBX 1 2 0 -1
BITMAP
80
80
ENDCHAR
STARTCHAR }
ENCODING 125
SWIDTH 1 0
DWIDTH 1 0
BBX 1 2 0 -1
BITMAP
80
80
ENDCHAR
STARTCHAR ~
ENCODING 126
SWIDTH 1 0
DWIDTH 1 0
BBX 1 2 0 -1
BITMAP
80
80
ENDCHAR
STARTCHAR C177
ENCODING 127
SWIDTH 1 0
DWIDTH 1 0
BBX 1 2 0 -1
BITMAP
00
00
ENDCHAR
STARTCHAR C200
ENCODING 128
SWIDTH 1 0
DWIDTH 1 0
BBX 1 2 0 -1
BITMAP
00
80
ENDCHAR
STARTCHAR C201
ENCODING 129
SWIDTH 1 0
DWIDTH 1 0
BBX 1 2 0 -1
BITMAP
80
80
ENDCHAR
STARTCHAR C202
ENCODING 130
SWIDTH 1 0
DWIDTH 1 0
BBX 1 2 0 -1
BITMAP
00
80
ENDCHAR
STARTCHAR C203
ENCODING 131
SWIDTH 1 0
DWIDTH 1 0
BBX 1 2 0 -1
BITMAP
00
80
ENDCHAR
STARTCHAR C204
ENCODING 132
SWIDTH 1 0
DWIDTH 1 0
BBX 1 2 0 -1
BITMAP
00
80
ENDCHAR
STARTCHAR C205
ENCODING 133
SWIDTH 1 0
DWIDTH 1 0
BBX 1 2 0 -1
BITMAP
00
80
ENDCHAR
STARTCHAR C206
ENCODING 134
SWIDTH 1 0
DWIDTH 1 0
BBX 1 2 0 -1
BITMAP
80
80
ENDCHAR
STARTCHAR C207
ENCODING 135
SWIDTH 1 0
DWIDTH 1 0
BBX 1 2 0 -1
BITMAP
80
80
ENDCHAR
STARTCHAR C210
ENCODING 136
SWIDTH 1 0
DWIDTH 1 0
BBX 1 2 0 -1
BITMAP
00
80
ENDCHAR
STARTCHAR C211
ENCODING 137
SWIDTH 1 0
DWIDTH 1 0
BBX 1 2 0 -1
BITMAP
00
80
ENDCHAR
STARTCHAR C212
ENCODING 138
SWIDTH 1 0
DWIDTH 1 0
BBX 1 2 0 -1
BITMAP
80
80
ENDCHAR
STARTCHAR C213
ENCODING 139
SWIDTH 1 0
DWIDTH 1 0
BBX 1 2 0 -1
BITMAP
00
80
ENDCHAR
STARTCHAR C214
ENCODING 140
SWIDTH 1 0
DWIDTH 1 0
BBX 1 2 0 -1
BITMAP
00
80
ENDCHAR
STARTCHAR C215
ENCODING 141
SWIDTH 1 0
DWIDTH 1 0
BBX 1 2 0 -1
BITMAP
80
80
ENDCHAR
STARTCHAR C216
ENCODING 142
SWIDTH 1 0
DWIDTH 1 0
BBX 1 2 0 -1
BITMAP
80
80
ENDCHAR
STARTCHAR C217
ENCODING 143
SWIDTH 1 0
DWIDTH 1 0
BBX 1 2 0 -1
BITMAP
80
80
ENDCHAR
STARTCHAR C220
ENCODING 144
SWIDTH 1 0
DWIDTH 1 0
BBX 1 2 0 -1
BITMAP
80
80
ENDCHAR
STARTCHAR C221
ENCODING 145
SWIDTH 1 0
DWIDTH 1 0
BBX 1 2 0 -1
BITMAP
80
80
ENDCHAR
STARTCHAR C222
ENCODING 146
SWIDTH 1 0
DWIDTH 1 0
BBX 1 2 0 -1
BITMAP
80
80
ENDCHAR
STARTCHAR C223
ENCODING 147
SWIDTH 1 0
DWIDTH 1 0
BBX 1 2 0 -1
BITMAP
80
80
ENDCHAR
STARTCHAR C224
ENCODING 148
SWIDTH 1 0
DWIDTH 1 0
BBX 1 2 0 -1
BITMAP
00
80
ENDCHAR
STARTCHAR C225
ENCODING 149
SWIDTH 1 0
DWIDTH 1 0
BBX 1 2 0 -1
BITMAP
00
80
ENDCHAR
STARTCHAR C226
ENCODING 150
SWIDTH 1 0
DWIDTH 1 0
BBX 1 2 0 -1
BITMAP
80
80
ENDCHAR
STARTCHAR C227
ENCODING 151
SWIDTH 1 0
DWIDTH 1 0
BBX 1 2 0 -1
BITMAP
00
80
ENDCHAR
STARTCHAR C230
ENCODING 152
SWIDTH 1 0
DWIDTH 1 0
BBX 1 2 0 -1
BITMAP
00
80
ENDCHAR
STARTCHAR C231
ENCODING 153
SWIDTH 1 0
DWIDTH 1 0
BBX 1 2 0 -1
BITMAP
00
80
ENDCHAR
STARTCHAR C232
ENCODING 154
SWIDTH 1 0
DWIDTH 1 0
BBX 1 2 0 -1
BITMAP
00
00
ENDCHAR
STARTCHAR C233
ENCODING 155
SWIDTH 1 0
DWIDTH 1 0
BBX 1 2 0 -1
BITMAP
80
80
ENDCHAR
STARTCHAR C234
ENCODING 156
SWIDTH 1 0
DWIDTH 1 0
BBX 1 2 0 -1
BITMAP
00
80
ENDCHAR
STARTCHAR C235
ENCODING 157
SWIDTH 1 0
DWIDTH 1 0
BBX 1 2 0 -1
BITMAP
00
80
ENDCHAR
STARTCHAR C236
ENCODING 158
SWIDTH 1 0
DWIDTH 1 0
BBX 1 2 0 -1
BITMAP
00
80
ENDCHAR
STARTCHAR C237
ENCODING 159
SWIDTH 1 0
DWIDTH 1 0
BBX 1 2 0 -1
BITMAP
00
80
ENDCHAR
STARTCHAR C240
ENCODING 160
SWIDTH 1 0
DWIDTH 1 0
BBX 1 2 0 -1
BITMAP
00
80
ENDCHAR
STARTCHAR C241
ENCODING 161
SWIDTH 1 0
DWIDTH 1 0
BBX 1 2 0 -1
BITMAP
80
80
ENDCHAR
STARTCHAR C242
ENCODING 162
SWIDTH 1 0
DWIDTH 1 0
BBX 1 2 0 -1
BITMAP
00
80
ENDCHAR
STARTCHAR C243
ENCODING 163
SWIDTH 1 0
DWIDTH 1 0
BBX 1 2 0 -1
BITMAP
00
80
ENDCHAR
STARTCHAR C244
ENCODING 164
SWIDTH 1 0
DWIDTH 1 0
BBX 1 2 0 -1
BITMAP
00
80
ENDCHAR
STARTCHAR C245
ENCODING 165
SWIDTH 1 0
DWIDTH 1 0
BBX 1 2 0 -1
BITMAP
00
80
ENDCHAR
STARTCHAR C246
ENCODING 166
SWIDTH 1 0
DWIDTH 1 0
BBX 1 2 0 -1
BITMAP
00
80
ENDCHAR
STARTCHAR C247
ENCODING 167
SWIDTH 1 0
DWIDTH 1 0
BBX 1 2 0 -1
BITMAP
00
80
ENDCHAR
STARTCHAR C250
ENCODING 168
SWIDTH 1 0
DWIDTH 1 0
BBX 1 2 0 -1
BITMAP
00
80
ENDCHAR
STARTCHAR C251
ENCODING 169
SWIDTH 1 0
DWIDTH 1 0
BBX 1 2 0 -1
BITMAP
00
80
ENDCHAR
STARTCHAR C252
ENCODING 170
SWIDTH 1 0
DWIDTH 1 0
BBX 1 2 0 -1
BITMAP
00
80
ENDCHAR
STARTCHAR C253
ENCODING 171
SWIDTH 1 0
DWIDTH 1 0
BBX 1 2 0 -1
BITMAP
00
80
ENDCHAR
STARTCHAR C254
ENCODING 172
SWIDTH 1 0
DWIDTH 1 0
BBX 1 2 0 -1
BITMAP
00
80
ENDCHAR
STARTCHAR C255
ENCODING 173
SWIDTH 1 0
DWIDTH 1 0
BBX 1 2 0 -1
BITMAP
00
80
ENDCHAR
STARTCHAR C256
ENCODING 174
SWIDTH 1 0
DWIDTH 1 0
BBX 1 2 0 -1
BITMAP
00
80
ENDCHAR
STARTCHAR C257
ENCODING 175
SWIDTH 1 0
DWIDTH 1 0
BBX 1 2 0 -1
BITMAP
80
80
ENDCHAR
STARTCHAR C260
ENCODING 176
SWIDTH 1 0
DWIDTH 1 0
BBX 1 2 0 -1
BITMAP
80
80
ENDCHAR
STARTCHAR C261
ENCODING 177
SWIDTH 1 0
DWIDTH 1 0
BBX 1 2 0 -1
BITMAP
80
80
ENDCHAR
STARTCHAR C262
ENCODING 178
SWIDTH 1 0
DWIDTH 1 0
BBX 1 2 0 -1
BITMAP
80
80
ENDCHAR
STARTCHAR C263
ENCODING 179
SWIDTH 1 0
DWIDTH 1 0
BBX 1 2 0 -1
BITMAP
80
80
ENDCHAR
STARTCHAR C264
ENCODING 180
SWIDTH 1 0
DWIDTH 1 0
BBX 1 2 0 -1
BITMAP
80
80
ENDCHAR
STARTCHAR C265
ENCODING 181
SWIDTH 1 0
DWIDTH 1 0
BBX 1 2 0 -1
BITMAP
80
80
ENDCHAR
STARTCHAR C266
ENCODING 182
SWIDTH 1 0
DWIDTH 1 0
BBX 1 2 0 -1
BITMAP
00
80
ENDCHAR
STARTCHAR C267
ENCODING 183
SWIDTH 1 0
DWIDTH 1 0
BBX 1 2 0 -1
BITMAP
00
80
ENDCHAR
STARTCHAR C270
ENCODING 184
SWIDTH 1 0
DWIDTH 1 0
BBX 1 2 0 -1
BITMAP
00
80
ENDCHAR
STARTCHAR C271
ENCODING 185
SWIDTH 1 0
DWIDTH 1 0
BBX 1 2 0 -1
BITMAP
00
80
ENDCHAR
STARTCHAR C272
ENCODING 186
SWIDTH 1 0
DWIDTH 1 0
BBX 1 2 0 -1
BITMAP
00
80
ENDCHAR
STARTCHAR C273
ENCODING 187
SWIDTH 1 0
DWIDTH 1 0
BBX 1 2 0 -1
BITMAP
00
80
ENDCHAR
STARTCHAR C274
ENCODING 188
SWIDTH 1 0
DWIDTH 1 0
BBX 1 2 0 -1
BITMAP
80
80
ENDCHAR
STARTCHAR C275
ENCODING 189
SWIDTH 1 0
DWIDTH 1 0
BBX 1 2 0 -1
BITMAP
80
80
ENDCHAR
STARTCHAR C276
ENCODING 190
SWIDTH 1 0
DWIDTH 1 0
BBX 1 2 0 -1
BITMAP
80
80
ENDCHAR
STARTCHAR C277
ENCODING 191
SWIDTH 1 0
DWIDTH 1 0
BBX 1 2 0 -1
BITMAP
00
80
ENDCHAR
STARTCHAR C300
ENCODING 192
SWIDTH 1 0
DWIDTH 1 0
BBX 1 2 0 -1
BITMAP
00
80
ENDCHAR
STARTCHAR C301
ENCODING 193
SWIDTH 1 0
DWIDTH 1 0
BBX 1 2 0 -1
BITMAP
00
80
ENDCHAR
STARTCHAR C302
ENCODING 194
SWIDTH 1 0
DWIDTH 1 0
BBX 1 2 0 -1
BITMAP
00
80
ENDCHAR
STARTCHAR C303
ENCODING 195
SWIDTH 1 0
DWIDTH 1 0
BBX 1 2 0 -1
BITMAP
00
80
ENDCHAR
STARTCHAR C304
ENCODING 196
SWIDTH 1 0
DWIDTH 1 0
BBX 1 2 0 -1
BITMAP
00
80
ENDCHAR
STARTCHAR C305
ENCODING 197
SWIDTH 1 0
DWIDTH 1 0
BBX 1 2 0 -1
BITMAP
00
80
ENDCHAR
STARTCHAR C306
ENCODING 198
SWIDTH 1 0
DWIDTH 1 0
BBX 1 2 0 -1
BITMAP
00
80
ENDCHAR
STARTCHAR C307
ENCODING 199
SWIDTH 1 0
DWIDTH 1 0
BBX 2 2 0 -1
BITMAP
00
80
ENDCHAR
STARTCHAR C310
ENCODING 200
SWIDTH 1 0
DWIDTH 1 0
BBX 1 2 0 -1
BITMAP
00
80
ENDCHAR
STARTCHAR C311
ENCODING 201
SWIDTH 1 0
DWIDTH 1 0
BBX 1 2 0 -1
BITMAP
00
80
ENDCHAR
STARTCHAR C312
ENCODING 202
SWIDTH 1 0
DWIDTH 1 0
BBX 1 2 0 -1
BITMAP
00
80
ENDCHAR
STARTCHAR C313
ENCODING 203
SWIDTH 1 0
DWIDTH 1 0
BBX 1 2 0 -1
BITMAP
00
80
ENDCHAR
STARTCHAR C314
ENCODING 204
SWIDTH 1 0
DWIDTH 1 0
BBX 1 2 0 -1
BITMAP
00
80
ENDCHAR
STARTCHAR C315
ENCODING 205
SWIDTH 1 0
DWIDTH 1 0
BBX 1 2 0 -1
BITMAP
00
80
ENDCHAR
STARTCHAR C316
ENCODING 206
SWIDTH 1 0
DWIDTH 1 0
BBX 1 2 0 -1
BITMAP
00
80
ENDCHAR
STARTCHAR C317
ENCODING 207
SWIDTH 1 0
DWIDTH 1 0
BBX 1 2 0 -1
BITMAP
00
80
ENDCHAR
STARTCHAR C320
ENCODING 208
SWIDTH 1 0
DWIDTH 1 0
BBX 1 2 0 -1
BITMAP
00
80
ENDCHAR
STARTCHAR C321
ENCODING 209
SWIDTH 1 0
DWIDTH 1 0
BBX 1 2 0 -1
BITMAP
00
80
ENDCHAR
STARTCHAR C322
ENCODING 210
SWIDTH 1 0
DWIDTH 1 0
BBX 2 2 0 -1
BITMAP
00
80
ENDCHAR
STARTCHAR C323
ENCODING 211
SWIDTH 1 0
DWIDTH 1 0
BBX 1 2 0 -1
BITMAP
00
80
ENDCHAR
STARTCHAR C324
ENCODING 212
SWIDTH 1 0
DWIDTH 1 0
BBX 1 2 0 -1
BITMAP
00
80
ENDCHAR
STARTCHAR C325
ENCODING 213
SWIDTH 1 0
DWIDTH 1 0
BBX 2 2 0 -1
BITMAP
00
80
ENDCHAR
STARTCHAR C326
ENCODING 214
SWIDTH 1 0
DWIDTH 1 0
BBX 1 2 0 -1
BITMAP
00
80
ENDCHAR
STARTCHAR C327
ENCODING 215
SWIDTH 1 0
DWIDTH 1 0
BBX 1 2 0 -1
BITMAP
00
80
ENDCHAR
STARTCHAR C330
ENCODING 216
SWIDTH 1 0
DWIDTH 1 0
BBX 1 2 0 -1
BITMAP
00
80
ENDCHAR
STARTCHAR C331
ENCODING 217
SWIDTH 1 0
DWIDTH 1 0
BBX 1 2 0 -1
BITMAP
00
80
ENDCHAR
STARTCHAR C332
ENCODING 218
SWIDTH 1 0
DWIDTH 1 0
BBX 1 2 0 -1
BITMAP
00
80
ENDCHAR
STARTCHAR C333
ENCODING 219
SWIDTH 1 0
DWIDTH 1 0
BBX 1 2 0 -1
BITMAP
00
80
ENDCHAR
STARTCHAR C334
ENCODING 220
SWIDTH 1 0
DWIDTH 1 0
BBX 1 2 0 -1
BITMAP
00
80
ENDCHAR
STARTCHAR C335
ENCODING 221
SWIDTH 1 0
DWIDTH 1 0
BBX 1 2 0 -1
BITMAP
00
80
ENDCHAR
STARTCHAR C336
ENCODING 222
SWIDTH 1 0
DWIDTH 1 0
BBX 1 2 0 -1
BITMAP
00
80
ENDCHAR
STARTCHAR C337
ENCODING 223
SWIDTH 1 0
DWIDTH 1 0
BBX 1 2 0 -1
BITMAP
00
80
ENDCHAR
STARTCHAR C340
ENCODING 224
SWIDTH 1 0
DWIDTH 1 0
BBX 1 2 0 -1
BITMAP
80
80
ENDCHAR
STARTCHAR C341
ENCODING 225
SWIDTH 1 0
DWIDTH 1 0
BBX 1 2 0 -1
BITMAP
80
80
ENDCHAR
STARTCHAR C342
ENCODING 226
SWIDTH 1 0
DWIDTH 1 0
BBX 1 2 0 -1
BITMAP
80
80
ENDCHAR
STARTCHAR C343
ENCODING 227
SWIDTH 1 0
DWIDTH 1 0
BBX 2 2 0 -1
BITMAP
80
80
ENDCHAR
STARTCHAR C344
ENCODING 228
SWIDTH 1 0
DWIDTH 1 0
BBX 1 2 0 -1
BITMAP
80
80
ENDCHAR
STARTCHAR C345
ENCODING 229
SWIDTH 1 0
DWIDTH 1 0
BBX 1 2 0 -1
BITMAP
80
80
ENDCHAR
STARTCHAR C346
ENCODING 230
SWIDTH 1 0
DWIDTH 1 0
BBX 1 2 0 -1
BITMAP
80
80
ENDCHAR
STARTCHAR C347
ENCODING 231
SWIDTH 1 0
DWIDTH 1 0
BBX 1 2 0 -1
BITMAP
80
80
ENDCHAR
STARTCHAR C350
ENCODING 232
SWIDTH 1 0
DWIDTH 1 0
BBX 1 2 0 -1
BITMAP
80
80
ENDCHAR
STARTCHAR C351
ENCODING 233
SWIDTH 1 0
DWIDTH 1 0
BBX 2 2 0 -1
BITMAP
80
80
ENDCHAR
STARTCHAR C352
ENCODING 234
SWIDTH 1 0
DWIDTH 1 0
BBX 1 2 0 -1
BITMAP
80
80
ENDCHAR
STARTCHAR C353
ENCODING 235
SWIDTH 1 0
DWIDTH 1 0
BBX 1 2 0 -1
BITMAP
80
80
ENDCHAR
STARTCHAR C354
ENCODING 236
SWIDTH 1 0
DWIDTH 1 0
BBX 1 2 0 -1
BITMAP
80
80
ENDCHAR
STARTCHAR C355
ENCODING 237
SWIDTH 1 0
DWIDTH 1 0
BBX 1 2 0 -1
BITMAP
80
80
ENDCHAR
STARTCHAR C356
ENCODING 238
SWIDTH 1 0
DWIDTH 1 0
BBX 1 2 0 -1
BITMAP
80
80
ENDCHAR
STARTCHAR C357
ENCODING 239
SWIDTH 1 0
DWIDTH 1 0
BBX 2 2 0 -1
BITMAP
80
80
ENDCHAR
STARTCHAR C360
ENCODING 240
SWIDTH 1 0
DWIDTH 1 0
BBX 1 2 0 -1
BITMAP
80
80
ENDCHAR
STARTCHAR C361
ENCODING 241
SWIDTH 1 0
DWIDTH 1 0
BBX 1 2 0 -1
BITMAP
80
80
ENDCHAR
STARTCHAR C362
ENCODING 242
SWIDTH 1 0
DWIDTH 1 0
BBX 1 2 0 -1
BITMAP
80
80
ENDCHAR
STARTCHAR C363
ENCODING 243
SWIDTH 1 0
DWIDTH 1 0
BBX 1 2 0 -1
BITMAP
80
80
ENDCHAR
STARTCHAR C364
ENCODING 244
SWIDTH 1 0
DWIDTH 1 0
BBX 2 2 0 -1
BITMAP
80
80
ENDCHAR
STARTCHAR C365
ENCODING 245
SWIDTH 1 0
DWIDTH 1 0
BBX 1 2 0 -1
BITMAP
80
80
ENDCHAR
STARTCHAR C366
ENCODING 246
SWIDTH 1 0
DWIDTH 1 0
BBX 1 2 0 -1
BITMAP
80
80
ENDCHAR
STARTCHAR C367
ENCODING 247
SWIDTH 1 0
DWIDTH 1 0
BBX 2 2 0 -1
BITMAP
80
80
ENDCHAR
STARTCHAR C370
ENCODING 248
SWIDTH 1 0
DWIDTH 1 0
BBX 2 2 0 -1
BITMAP
80
80
ENDCHAR
STARTCHAR C371
ENCODING 249
SWIDTH 1 0
DWIDTH 1 0
BBX 1 2 0 -1
BITMAP
80
80
ENDCHAR
STARTCHAR C372
ENCODING 250
SWIDTH 1 0
DWIDTH 1 0
BBX 1 2 0 -1
BITMAP
80
80
ENDCHAR
STARTCHAR C373
ENCODING 251
SWIDTH 1 0
DWIDTH 1 0
BBX 1 2 0 -1
BITMAP
80
80
ENDCHAR
STARTCHAR C374
ENCODING 252
SWIDTH 1 0
DWIDTH 1 0
BBX 1 2 0 -1
BITMAP
80
80
ENDCHAR
STARTCHAR C375
ENCODING 253
SWIDTH 1 0
DWIDTH 1 0
BBX 1 2 0 -1
BITMAP
80
80
ENDCHAR
STARTCHAR C376
ENCODING 254
SWIDTH 1 0
DWIDTH 1 0
BBX 1 2 0 -1
BITMAP
80
80
ENDCHAR
STARTCHAR C377
ENCODING 255
SWIDTH 1 0
DWIDTH 1 0
BBX 1 2 0 -1
BITMAP
80
80
ENDCHAR
ENDFONT
